<svg width="512" height="512" viewBox="0 0 512 512" fill="none" xmlns="http://www.w3.org/2000/svg">
<path d="M56 400H200C210.605 399.988 220.772 395.77 228.271 388.271C235.77 380.772 239.988 370.605 240 360V184C240 182.949 239.793 181.909 239.391 180.938C238.989 179.968 238.4 179.086 237.657 178.343L173.657 114.343C172.914 113.6 172.032 113.011 171.062 112.609C170.091 112.207 169.051 112 168 112H56C45.395 112.012 35.2278 116.23 27.7289 123.729C20.23 131.228 16.0119 141.395 16 152V360C16.0119 370.605 20.23 380.772 27.7289 388.271C35.2278 395.77 45.395 399.988 56 400V400ZM176 139.313L212.687 176H200C193.637 175.993 187.537 173.462 183.038 168.962C178.538 164.463 176.007 158.363 176 152V139.313ZM32 152C32.0074 145.637 34.5384 139.537 39.0376 135.038C43.5369 130.538 49.6371 128.007 56 128H160V152C160.012 162.605 164.23 172.772 171.729 180.271C179.228 187.77 189.395 191.988 200 192H224V360C223.993 366.363 221.462 372.463 216.962 376.962C212.463 381.462 206.363 383.993 200 384H56C49.6371 383.993 43.5369 381.462 39.0376 376.962C34.5384 372.463 32.0074 366.363 32 360V152Z" fill="white"/>
<path d="M429.657 114.343C428.914 113.6 428.032 113.011 427.062 112.609C426.091 112.207 425.051 112 424 112H312C301.395 112.012 291.228 116.23 283.729 123.729C276.23 131.228 272.012 141.395 272 152V360C272.012 370.605 276.23 380.772 283.729 388.271C291.228 395.77 301.395 399.988 312 400H456C466.605 399.988 476.772 395.77 484.271 388.271C491.77 380.772 495.988 370.605 496 360V184C496 182.949 495.793 181.909 495.391 180.938C494.989 179.968 494.4 179.086 493.657 178.343L429.657 114.343ZM432 139.313L468.687 176H456C449.637 175.993 443.537 173.462 439.038 168.962C434.538 164.463 432.007 158.363 432 152V139.313ZM480 360C479.993 366.363 477.462 372.463 472.962 376.962C468.463 381.462 462.363 383.993 456 384H312C305.637 383.993 299.537 381.462 295.038 376.962C290.538 372.463 288.007 366.363 288 360V152C288.007 145.637 290.538 139.537 295.038 135.038C299.537 130.538 305.637 128.007 312 128H416V152C416.012 162.605 420.23 172.772 427.729 180.271C435.228 187.77 445.395 191.988 456 192H480V360Z" fill="white"/>
<path d="M352 264C356.418 264 360 260.418 360 256C360 251.582 356.418 248 352 248C347.582 248 344 251.582 344 256C344 260.418 347.582 264 352 264Z" fill="white"/>
<path d="M384 264C388.418 264 392 260.418 392 256C392 251.582 388.418 248 384 248C379.582 248 376 251.582 376 256C376 260.418 379.582 264 384 264Z" fill="white"/>
<path d="M416 264C420.418 264 424 260.418 424 256C424 251.582 420.418 248 416 248C411.582 248 408 251.582 408 256C408 260.418 411.582 264 416 264Z" fill="white"/>
<path d="M328 72C328 74.1217 328.843 76.1566 330.343 77.6569C331.843 79.1571 333.878 80 336 80H376C378.122 80 380.157 79.1571 381.657 77.6569C383.157 76.1566 384 74.1217 384 72V32C384 29.8783 383.157 27.8434 381.657 26.3431C380.157 24.8429 378.122 24 376 24C373.878 24 371.843 24.8429 370.343 26.3431C368.843 27.8434 368 29.8783 368 32V47.573C362.061 43.586 354.07 39.689 343.383 36.126C319.924 28.307 288.891 24 256 24C223.109 24 192.076 28.307 168.617 36.126C135.047 47.316 128 61.811 128 72C128 74.1217 128.843 76.1566 130.343 77.6569C131.843 79.1571 133.878 80 136 80C138.122 80 140.157 79.1571 141.657 77.6569C143.157 76.1566 144 74.1217 144 72C144 58.952 187.631 40 256 40C311.231 40 350.312 52.368 363.294 64H336C333.878 64 331.843 64.8429 330.343 66.3431C328.843 67.8434 328 69.8783 328 72Z" fill="white"/>
<path d="M376 432C373.878 432 371.843 432.843 370.343 434.343C368.843 435.843 368 437.878 368 440C368 453.048 324.369 472 256 472C200.769 472 161.688 459.632 148.706 448H176C178.122 448 180.157 447.157 181.657 445.657C183.157 444.157 184 442.122 184 440C184 437.878 183.157 435.843 181.657 434.343C180.157 432.843 178.122 432 176 432H136C133.878 432 131.843 432.843 130.343 434.343C128.843 435.843 128 437.878 128 440V480C128 482.122 128.843 484.157 130.343 485.657C131.843 487.157 133.878 488 136 488C138.122 488 140.157 487.157 141.657 485.657C143.157 484.157 144 482.122 144 480V464.427C149.939 468.414 157.93 472.311 168.617 475.874C192.076 483.693 223.109 488 256 488C288.891 488 319.924 483.693 343.383 475.874C376.953 464.684 384 450.189 384 440C384 437.878 383.157 435.843 381.657 434.343C380.157 432.843 378.122 432 376 432Z" fill="white"/>
<path d="M120 240H184C186.122 240 188.157 239.157 189.657 237.657C191.157 236.157 192 234.122 192 232C192 229.878 191.157 227.843 189.657 226.343C188.157 224.843 186.122 224 184 224H120C117.878 224 115.843 224.843 114.343 226.343C112.843 227.843 112 229.878 112 232C112 234.122 112.843 236.157 114.343 237.657C115.843 239.157 117.878 240 120 240V240Z" fill="white"/>
<path d="M72 288H136C138.122 288 140.157 287.157 141.657 285.657C143.157 284.157 144 282.122 144 280C144 277.878 143.157 275.843 141.657 274.343C140.157 272.843 138.122 272 136 272H72C69.8783 272 67.8434 272.843 66.3431 274.343C64.8429 275.843 64 277.878 64 280C64 282.122 64.8429 284.157 66.3431 285.657C67.8434 287.157 69.8783 288 72 288V288Z" fill="white"/>
<path d="M184 320H136C133.878 320 131.843 320.843 130.343 322.343C128.843 323.843 128 325.878 128 328C128 330.122 128.843 332.157 130.343 333.657C131.843 335.157 133.878 336 136 336H184C186.122 336 188.157 335.157 189.657 333.657C191.157 332.157 192 330.122 192 328C192 325.878 191.157 323.843 189.657 322.343C188.157 320.843 186.122 320 184 320Z" fill="white"/>
<path d="M72 240H88C90.1217 240 92.1566 239.157 93.6569 237.657C95.1571 236.157 96 234.122 96 232C96 229.878 95.1571 227.843 93.6569 226.343C92.1566 224.843 90.1217 224 88 224H72C69.8783 224 67.8434 224.843 66.3431 226.343C64.8429 227.843 64 229.878 64 232C64 234.122 64.8429 236.157 66.3431 237.657C67.8434 239.157 69.8783 240 72 240V240Z" fill="white"/>
<path d="M184 272H168C165.878 272 163.843 272.843 162.343 274.343C160.843 275.843 160 277.878 160 280C160 282.122 160.843 284.157 162.343 285.657C163.843 287.157 165.878 288 168 288H184C186.122 288 188.157 287.157 189.657 285.657C191.157 284.157 192 282.122 192 280C192 277.878 191.157 275.843 189.657 274.343C188.157 272.843 186.122 272 184 272Z" fill="white"/>
<path d="M72 336H104C106.122 336 108.157 335.157 109.657 333.657C111.157 332.157 112 330.122 112 328C112 325.878 111.157 323.843 109.657 322.343C108.157 320.843 106.122 320 104 320H72C69.8783 320 67.8434 320.843 66.3431 322.343C64.8429 323.843 64 325.878 64 328C64 330.122 64.8429 332.157 66.3431 333.657C67.8434 335.157 69.8783 336 72 336V336Z" fill="white"/>
<path d="M72 192H104C106.122 192 108.157 191.157 109.657 189.657C111.157 188.157 112 186.122 112 184C112 181.878 111.157 179.843 109.657 178.343C108.157 176.843 106.122 176 104 176H72C69.8783 176 67.8434 176.843 66.3431 178.343C64.8429 179.843 64 181.878 64 184C64 186.122 64.8429 188.157 66.3431 189.657C67.8434 191.157 69.8783 192 72 192V192Z" fill="white"/>
</svg>
