<svg width="55" height="55" viewBox="0 0 55 55" fill="none" xmlns="http://www.w3.org/2000/svg">
<path d="M7.798 18.4611H18.1177C19.2532 18.4611 20.1765 17.5378 20.1765 16.4036V2.05752H42.8761V27.7083H44.9362V2.05752C44.9362 0.922025 44.0116 0 42.8761 0H20.1778C19.4616 0 18.6604 0.340776 18.092 0.84101C17.9621 0.938742 17.8335 1.05962 17.7037 1.22937L6.56607 15.9908C6.08641 16.6247 5.73792 17.6664 5.73792 18.4611V48.9007C5.73792 50.035 6.66251 50.9608 7.798 50.9608H25.4952V48.9007H7.798V18.4611ZM10.6361 14.0181L18.119 4.10089V16.4036H8.83576L10.6361 14.0181Z" fill="white"/>
<path d="M48.4404 49.8652L45.0789 46.2658C46.4755 44.2263 47.2393 41.7702 47.2393 39.296C47.2393 32.4998 41.7059 26.9663 34.9097 26.9663C28.1096 26.9663 22.5813 32.4998 22.5813 39.296C22.5813 46.0948 28.1108 51.6295 34.9097 51.6295C36.836 51.6295 38.7495 51.1679 40.4778 50.2883C40.4907 50.2999 40.5022 50.3102 40.5112 50.3217L43.9756 54.0291C44.5504 54.6451 45.3618 55 46.2054 55C46.9834 55 47.7203 54.7068 48.2874 54.1796C48.8828 53.6215 49.23 52.8666 49.2596 52.0526C49.2866 51.2347 48.9959 50.4606 48.4404 49.8652ZM46.8857 52.6763C46.5231 53.0158 45.8196 52.9926 45.4776 52.6261L42.0158 48.9213C41.9271 48.8236 41.8538 48.7053 41.8088 48.5703L41.387 47.3563L40.2952 48.0302C38.6633 49.0371 36.8 49.572 34.9071 49.572C29.2463 49.572 24.6375 44.9632 24.6375 39.2999C24.6375 33.6378 29.2463 29.029 34.9071 29.029C40.5704 29.029 45.1792 33.6378 45.1792 39.2973C45.1792 41.6622 44.3511 43.973 42.8568 45.799L42.0492 46.7879L43.1834 47.3679C43.3223 47.4412 43.4136 47.5016 43.4715 47.5595L46.9358 51.2746C47.1159 51.4662 47.2097 51.7208 47.1995 51.9845C47.1917 52.2468 47.0773 52.495 46.8857 52.6763Z" fill="white"/>
<path d="M34.9058 30.4333C30.0205 30.4333 26.043 34.412 26.043 39.2973C26.0443 44.189 30.0205 48.1652 34.9058 48.1652C39.7962 48.1652 43.7724 44.1878 43.7724 39.2973C43.7724 34.4107 39.7962 30.4333 34.9058 30.4333ZM34.9058 46.1038C31.1534 46.1038 28.1005 43.0523 28.1005 39.296C28.1005 35.5436 31.1534 32.4933 34.9058 32.4933C38.6582 32.4933 41.7123 35.5436 41.7123 39.296C41.7123 43.0523 38.6582 46.1038 34.9058 46.1038Z" fill="white"/>
</svg>
