<svg width="512" height="512" viewBox="0 0 512 512" fill="none" xmlns="http://www.w3.org/2000/svg">
<g clip-path="url(#clip0)">
<path d="M187 390C187 277.032 187.1 263.07 187 263.02C186.8 262.96 183.72 263 144.47 263C136.37 263 129.38 256.78 129.02 248.69C128.63 240.1 135.49 233 144 233C183.66 233 186.8 233.04 187 232.98C187.1 232.93 187 220.205 187 122C187 113.72 193.72 107 202 107H371.02C331.44 65.81 276.11 41 216 41C96.9 41 0 137.45 0 256C0 374.55 96.9 471 216 471C276.08 471 331.42 446.21 371.02 405H202C193.72 405 187 398.28 187 390V390ZM128 169H151.53C159.63 169 166.62 175.22 166.98 183.31C167.37 191.9 160.51 199 152 199H128.47C120.37 199 113.38 192.78 113.02 184.69C112.63 176.1 119.49 169 128 169ZM144 327H96.47C88.37 327 81.38 320.78 81.02 312.69C80.63 304.1 87.49 297 96 297H143.53C151.63 297 158.62 303.22 158.98 311.31C159.37 319.9 152.51 327 144 327Z" fill="white"/>
<path d="M491.77 137H236.212L365.864 236.956L491.77 137Z" fill="white"/>
<path d="M375.327 267.748C369.945 272.021 362.318 272.102 356.842 267.879L217 160.069V360C217 368.284 223.716 375 232 375H497C505.284 375 512 368.284 512 360V159.244L375.327 267.748Z" fill="white"/>
</g>
<defs>
<clipPath id="clip0">
<rect width="512" height="512" fill="white"/>
</clipPath>
</defs>
</svg>
