<svg id="Layer_1" enable-background="new 0 0 512 512" height="512" viewBox="0 0 512 512" width="512" xmlns="http://www.w3.org/2000/svg"><g><g><g><g><g><g id="XMLID_1228_"><g id="XMLID_1229_"><g id="XMLID_1230_"><g id="XMLID_1231_"><g id="XMLID_1232_"><g id="XMLID_1233_"><g id="XMLID_1234_"><g id="XMLID_1235_"><g id="XMLID_1236_"><g id="XMLID_1466_"><g id="XMLID_1574_"><g id="XMLID_1649_"><g id="XMLID_1683_"><g id="XMLID_1684_"><g id="XMLID_1788_"><circle cx="256" cy="256" fill="#bee75e" r="256"/></g></g></g></g></g></g></g></g></g></g></g></g></g></g></g></g></g></g></g><path d="m511.969 260.053-205.89-205.89s-105.671 62.934-150.439 61.244c-44.768-1.689-69.63 17.347-69.63 17.347l130.925 127.178 18.762 149.704-65.657 45.334 55.2 55.2c10.085 1.208 20.35 1.83 30.76 1.83 140.031 0 253.803-112.431 255.969-251.947z" fill="#00cb75"/><g><g><path d="m357.911 454.97-133.702-.005-7.805-21.919c-10.962-11.62-17.995-27.026-18.914-44.146l-4.654-104.99-1.406-25.97c-2.062-38.215 74.369-88.368 74.369-88.368 30.354-2.988 40.756 23.933 57.802 84.942 23.137 82.763 34.31 200.456 34.31 200.456z" fill="#fff"/><path d="m284.61 454.968 73.301.003s-11.173-117.694-34.31-200.456c-10.503-37.592-23.478-71.808-38.991-91.843z" fill="#f7efd0"/><path d="m323.601 254.515v29.396h-104.758c-14.586 0-26.625-11.405-27.413-25.97-2.062-38.215 14.224-75.129 43.849-99.37l17.369-14.214c30.353-2.989 53.907 49.149 70.953 110.158z" fill="#ffdf5a"/><path d="m204.859 89.925-97.125 15.165c-9.586 1.497-17.303 8.664-19.503 18.114l-2.223 9.55h118.85v-42.829z" fill="#494949"/><path d="m251.769 454.97h-81.729v-1.36c0-18.194 14.749-32.942 32.942-32.942h28.173c11.385 0 20.614 9.229 20.614 20.614z" fill="#666"/><path d="m361.713 158.431-44.793-87.856c-.6-1.269-1.235-2.518-1.908-3.743l-.048-.093-.004.004c-11.878-21.542-34.8-36.14-61.139-36.14-38.537 0-69.778 31.241-69.778 69.778s32.877 69.192 71.414 69.192l6.573 180.092c0 47.773 48.108 105.301 95.881 105.301h27.257v-76.228c0-97.339-8.209-182.779-23.455-220.307z" fill="#666"/><g fill="#494949"><path d="m385.17 378.735v76.23h-27.26c-27.36 0-54.83-18.87-73.3-43.97v-373.24c12.84 6.32 23.45 16.48 30.35 28.98l.05.1c.68 1.22 1.31 2.47 1.91 3.74l44.79 87.86c15.25 37.52 23.46 122.96 23.46 220.3z"/><circle cx="241.374" cy="89.925" r="16.054"/></g></g><path d="m324.908 387.762c-38.357 0-69.451-31.094-69.451-69.451v-148.738h10.341c32.645 0 59.109 26.464 59.109 59.109v159.08z" fill="#494949"/><path d="m324.91 228.685v159.08c-15.03 0-28.94-4.77-40.3-12.88v-202.25c23.42 7.85 40.3 29.98 40.3 56.05z" fill="#303030"/></g></g></svg>