<svg height="512" viewBox="0 0 44 58" width="512" xmlns="http://www.w3.org/2000/svg"><g id="Page-1" fill="none" fill-rule="evenodd"><g id="009---Penguin" fill-rule="nonzero"><path id="Shape" d="m36.43 48.64c2.38 2.08 4.73 2.95 6.18 2.03 2.34-1.47 1.47-7.02-1.92-12.39-2.28-3.6-5.12-6.2-7.45-7.08l-22.35.08c-2.36.83-5.26 3.46-7.58 7.13-3.39 5.36-4.26 10.91-1.92 12.39 1.46.92 3.83.03 6.23-2.09z" fill="#2c3e50"/><path id="Shape" d="m35.8 41.66-9.89 15.78c-2.5531962.7466717-5.2668038.7466717-7.82 0l-9.89-15.78c.61364376-3.6055154 2.6125958-6.8282424 5.57-8.98h16.46c2.9574042 2.1517576 4.9563562 5.3744846 5.57 8.98z" fill="#ecf0f1"/><path id="Shape" d="m16.07 58c-1.2933913.0009888-2.504376-.6347968-3.238-1.7l-6.073-8.832c-.79422247-1.1550527-.92586248-2.6415736-.34698124-3.9182226s1.78380572-2.1571207 3.17598124-2.3207774l5.948-.7c1.1336269-.1323946 2.2698202.2257774 3.1225777.9843571.8527574.7585796 1.3408525 1.8453112 1.3414223 2.9866429v9.57c-.000552 2.1702504-1.7597496 3.929448-3.93 3.93z" fill="#f29c1f"/><path id="Shape" d="m27.93 58c1.2933913.0009888 2.504376-.6347968 3.238-1.7l6.073-8.832c.7942225-1.1550527.9258625-2.6415736.3469812-3.9182226-.5788812-1.276649-1.7838057-2.1571207-3.1759812-2.3207774l-5.948-.7c-1.1336269-.1323946-2.2698202.2257774-3.1225777.9843571-.8527574.7585796-1.3408525 1.8453112-1.3414223 2.9866429v9.57c.000552 2.1702504 1.7597496 3.929448 3.93 3.93z" fill="#f29c1f"/><ellipse id="Oval" cx="22" cy="17" fill="#3f5c6c" rx="18" ry="17"/><path id="Shape" d="m32.44 34.68c-3.2259446 1.6489499-6.819295 2.4474722-10.44 2.32-3.620705.1274722-7.2140554-.6710501-10.44-2.32.6634904-.7433181 1.4043445-1.4137743 2.21-2h16.46c.8056555.5862257 1.5465096 1.2566819 2.21 2z" fill="#d1d4d1"/><path id="Shape" d="m37 19c0 3.63-.53 8.33-3.13 11.77 0 .01-.01.01-.01.02-2.82 2.02-6.72 3.21-11.86 3.21s-9.03-1.19-11.85-3.21c-2.62-3.44-3.15-8.15-3.15-11.79 0-3.67 2.45-6.92 6.23-8.92.8366535-.43595535 1.7665805-.66243204 2.71-.66 1.0677382.00179299 2.1161952.28460047 3.04.82 1.8685057 1.0799745 4.1714943 1.0799745 6.04 0 1.7641966-1.02960571 3.9312778-1.0899071 5.75-.16 3.78 2 6.23 5.25 6.23 8.92z" fill="#ecf0f1"/><circle id="Oval" cx="15" cy="17" fill="#35495e" r="3"/><circle id="Oval" cx="15" cy="16.5" fill="#3f5c6c" r="2.5"/><circle id="Oval" cx="29" cy="17" fill="#35495e" r="3"/><circle id="Oval" cx="29" cy="16.5" fill="#3f5c6c" r="2.5"/><path id="Shape" d="m33 25s-6.65 1.66-10.1.44c-.5816224-.210015-1.2183776-.210015-1.8 0-3.45 1.22-10.1-.44-10.1-.44 3.0466454-2.6463998 6.9651026-4.0712933 11-4 4.0348974-.0712933 7.9533546 1.3536002 11 4z" fill="#f29c1f"/><path id="Shape" d="m33 25s-1 5-11 5-11-5-11-5 6.65 1.66 10.1.44c.5816224-.210015 1.2183776-.210015 1.8 0 3.45 1.22 10.1-.44 10.1-.44z" fill="#e57e25"/><g fill="#ecf0f1"><circle id="Oval" cx="14" cy="16" r="1"/><circle id="Oval" cx="28" cy="16" r="1"/></g></g></g></svg>