<svg width="650" height="650" viewBox="0 0 650 650" fill="none" xmlns="http://www.w3.org/2000/svg">
<path d="M636.617 235.147H420.97V411.412H636.617V235.147Z" fill="white"/>
<path d="M472.937 306.76C470.619 306.793 469.134 307.015 468.257 307.233V336.767C469.132 336.983 470.556 337.007 471.843 337.032C481.317 337.275 487.609 332.194 487.609 321.182C487.677 311.605 481.95 306.628 472.937 306.76Z" fill="#F40F02"/>
<path d="M552.517 419.898C552.83 419.915 553.146 419.942 553.466 419.942H625.675C634.119 419.942 640.991 413.331 640.991 405.208V244.201C640.991 236.079 634.119 229.468 625.675 229.468H553.466C553.148 229.468 552.83 229.498 552.517 229.512V210.294L411.58 228.386V421.146L552.517 439.706V419.898ZM625.675 411.527H553.466C553.143 411.527 552.83 411.477 552.517 411.432V348.26C567.563 345.759 588.457 343.866 606.528 347.95L608.667 351.939C617.294 367.628 626.508 367.525 630.067 366.752C630.884 366.576 631.324 366.379 631.324 366.379L631.803 366.134C631.965 366.035 632.091 365.91 632.239 365.803V405.212C632.239 408.692 629.294 411.527 625.675 411.527ZM558.642 340.773C569.949 327.508 579.087 315.124 584.972 306.737L584.993 306.783L585.057 306.689C589.677 316.057 597.293 330.547 602.537 340.438L602.52 340.434L602.699 340.765C587.788 338.315 571.777 339.209 558.607 340.96L558.8 340.744L558.642 340.773ZM585.241 278.875C585.694 278.107 586.357 277.903 587.545 277.953C587.566 277.955 589.925 278.104 590.805 279.659C591.34 280.584 592.113 283.52 587.951 290.68H587.946C587.946 290.68 587.408 291.542 586.395 293.096C584.062 285.214 584.216 280.612 585.241 278.875ZM615.353 350.534C619.631 352.117 623.473 354.067 626.837 356.373C627.803 357.693 628.696 359.592 628.534 360.488C628.525 360.531 628.517 360.574 628.491 360.617C627.11 360.862 621.618 361.027 615.353 350.534ZM553.466 237.888H625.675C629.294 237.888 632.239 240.722 632.239 244.202V352.794C632.033 352.513 631.856 352.281 631.751 352.155L631.473 351.81L631.11 351.551C625.508 347.616 618.755 344.585 611.02 342.536C605.505 332.177 594.083 310.586 589.282 300.475C592.062 296.356 593.556 293.955 593.624 293.845C597.955 286.418 598.902 280.62 596.507 276.53C594.336 272.828 590.011 271.716 587.801 271.645C584.228 271.489 581.181 272.959 579.527 275.758C577.006 280.032 577.527 287.519 581.091 297.996C581.25 298.48 581.504 299.101 581.839 299.882C576.13 308.188 565.77 322.555 552.516 337.987V237.981C552.83 237.937 553.141 237.888 553.466 237.888ZM447.679 323.697C444.347 326.877 439.448 328.264 433.794 328.215C432.55 328.203 431.426 328.129 430.558 327.993V343.466L421.302 343.219V300.975C424.161 300.402 428.207 299.927 433.982 299.792C439.883 299.653 444.156 300.728 447.038 303.018C449.817 305.192 451.692 308.848 451.692 313.186C451.692 317.528 450.266 321.209 447.679 323.697ZM491.133 339.583C486.134 343.506 478.62 345.216 469.602 344.974C464.29 344.828 460.563 344.398 458.052 344V300.158C461.76 299.479 466.637 299.032 471.843 298.91C480.626 298.704 486.412 300.142 490.997 303.407C495.976 306.907 499.136 312.605 499.136 320.847C499.136 329.781 495.764 335.887 491.133 339.583ZM506.41 298.455L537.547 297.74V306.746L517.741 307.022V317.893L536.23 317.849V326.768L517.741 326.645V345.78L506.406 345.48V298.456H506.41V298.455Z" fill="#F40F02"/>
<path d="M434.483 307.197C432.55 307.225 431.245 307.436 430.56 307.641V320.416C431.362 320.61 432.358 320.675 433.734 320.675C438.82 320.679 441.985 318.01 441.985 313.525C441.986 309.49 439.26 307.123 434.483 307.197Z" fill="#F40F02"/>
<path d="M238.588 240.5H142.235V412.941H238.588V240.5Z" fill="white"/>
<path d="M145.791 216.125C144.657 215.204 143.164 214.852 141.738 215.17L17.4738 243.846C15.2868 244.349 13.7436 246.305 13.7647 248.549V411.049C13.7656 413.407 15.4866 415.413 17.8175 415.771L142.082 434.889C144.691 435.29 147.131 433.501 147.532 430.892C147.569 430.652 147.588 430.41 147.588 430.167V219.872C147.592 218.415 146.931 217.035 145.791 216.125Z" fill="#1565C0"/>
<path d="M238.397 415.828H142.809C140.169 415.828 138.029 413.688 138.029 411.049C138.029 408.409 140.169 406.269 142.809 406.269H233.618V243.769H142.809C140.169 243.769 138.029 241.629 138.029 238.99C138.029 236.35 140.169 234.211 142.809 234.211H238.397C241.037 234.211 243.177 236.351 243.177 238.99V411.049C243.177 413.689 241.037 415.828 238.397 415.828Z" fill="#1565C0"/>
<path d="M95.015 368.034C92.8854 368.032 91.0148 366.621 90.4269 364.574L75.8973 313.74L61.3677 364.574C60.3183 367.111 57.4112 368.316 54.8743 367.267C53.6546 366.762 52.6859 365.794 52.1814 364.574L33.064 297.662C32.2638 295.147 33.6546 292.459 36.17 291.659C38.6855 290.859 41.3731 292.25 42.1734 294.765C42.2016 294.854 42.227 294.943 42.2503 295.034L56.7794 345.858L71.309 295.024C72.3584 292.488 75.2655 291.282 77.8024 292.331C79.0221 292.836 79.9908 293.804 80.4953 295.024L95.015 345.858L109.545 295.034C110.232 292.519 112.829 291.037 115.345 291.725C115.381 291.734 115.416 291.745 115.452 291.755C117.988 292.482 119.455 295.126 118.73 297.662L99.6127 364.574C99.0239 366.624 97.1478 368.036 95.015 368.034Z" fill="#FAFAFA"/>
<path d="M219.28 272.446H142.809C140.169 272.446 138.029 270.306 138.029 267.666C138.029 265.027 140.169 262.887 142.809 262.887H219.28C221.919 262.887 224.059 265.027 224.059 267.666C224.059 270.306 221.919 272.446 219.28 272.446Z" fill="#1565C0"/>
<path d="M219.28 301.122H142.809C140.169 301.122 138.029 298.982 138.029 296.343C138.029 293.703 140.169 291.563 142.809 291.563H219.28C221.919 291.563 224.059 293.703 224.059 296.343C224.059 298.982 221.919 301.122 219.28 301.122Z" fill="#1565C0"/>
<path d="M219.28 329.799H142.809C140.169 329.799 138.029 327.659 138.029 325.019C138.029 322.38 140.169 320.24 142.809 320.24H219.28C221.919 320.24 224.059 322.38 224.059 325.019C224.059 327.659 221.919 329.799 219.28 329.799Z" fill="#1565C0"/>
<path d="M219.28 358.475H142.809C140.169 358.475 138.029 356.335 138.029 353.696C138.029 351.056 140.169 348.916 142.809 348.916H219.28C221.919 348.916 224.059 351.056 224.059 353.696C224.059 356.336 221.919 358.475 219.28 358.475Z" fill="#1565C0"/>
<path d="M219.28 387.152H142.809C140.169 387.152 138.029 385.012 138.029 382.372C138.029 379.733 140.169 377.593 142.809 377.593H219.28C221.919 377.593 224.059 379.733 224.059 382.372C224.059 385.012 221.919 387.152 219.28 387.152Z" fill="#1565C0"/>
<path d="M381.989 328.249L337.946 284.05C335.233 281.329 331.622 279.831 327.779 279.831C321.871 279.831 316.79 283.22 314.521 288.676C312.251 294.131 313.429 300.124 317.593 304.313L337.182 324.043H278.163C270.256 324.043 263.824 330.476 263.824 338.382C263.824 346.289 270.256 352.721 278.163 352.721H337.182L317.594 372.45C313.429 376.641 312.252 382.633 314.521 388.088C316.79 393.544 321.871 396.933 327.78 396.933C331.622 396.933 335.233 395.435 337.949 392.712L365.286 365.269C367.148 363.399 367.142 360.372 365.272 358.509C363.402 356.647 360.376 356.652 358.513 358.523L331.179 385.964C330.285 386.86 329.046 387.374 327.78 387.374C324.808 387.374 323.635 385.111 323.347 384.417C323.058 383.723 322.28 381.296 324.376 379.187L352.054 351.309C353.414 349.94 353.817 347.886 353.075 346.105C352.333 344.323 350.593 343.162 348.662 343.162H278.163C275.527 343.162 273.383 341.018 273.383 338.382C273.383 335.747 275.527 333.603 278.163 333.603H348.662C350.592 333.603 352.333 332.442 353.075 330.66C353.816 328.878 353.414 326.825 352.054 325.455L324.375 297.577C322.28 295.469 323.058 293.042 323.347 292.348C323.635 291.654 324.808 289.391 327.78 289.391C329.046 289.391 330.285 289.905 331.177 290.8L375.223 335.002C377.087 336.866 377.087 339.898 375.223 341.762C373.357 343.628 373.357 346.654 375.223 348.521C377.09 350.388 380.116 350.388 381.983 348.521C387.573 342.931 387.573 333.834 381.989 328.249Z" fill="white"/>
</svg>
